<?xml version="1.0" encoding="UTF-8"?>
<svg xmlns="http://www.w3.org/2000/svg" version="1.1" viewBox="0 0 800 800">
  <defs>
    <style>
      .cls-1 {
        fill: #8a90a4;
      }

      .cls-2 {
        fill: #a4a9b7;
      }

      .cls-3 {
        fill: #1c274c;
      }
    </style>
  </defs>
  <!-- Generator: Adobe Illustrator 28.6.0, SVG Export Plug-In . SVG Version: 1.2.0 Build 709)  -->
  <g>
    <g id="Layer_1">
      <path class="cls-3" d="M128.2,510.7"/>
      <path class="cls-1" d="M738.2,152.9L591.8,6.5c4.2-3.8-1-5.9-6.4-5.9H156.1c-11,0-20,9-20,20v395.5H.3v341.2h135.8v23.3c0,11,9,20,20,20h576c11,0,20-9,20-20V173.6c.2-8.9,0-14.2-13.9-20.7ZM532.8,195.9h88l11.5,32.3-19.1,56.8-74.3,13-19.1-74.3,13.1-27.9ZM505.6,195.9l-9.6,21.7,22.4,103.2-30.8,36.9-73.5,14.6-78.1-53.6-43.7-65.9,32.8-57h180.5ZM475.3,377.7l-33.2,35.2h-152l19.8-14.5,15.3-57.4,82,51.3,68.2-14.6ZM186.9,195.9h114.6l-27.2,51.2-87.3,35.5v-86.7ZM186.9,297.1l85.4-32.7,36,56.7-19.1,69.7-32.4,22.1h-69.9v-115.8ZM696.2,709H51.6v-245.1h644.6v245.1ZM696.2,412.9h-225.1l73.1-88.6,72-10.9,79.9,40.4v59.1ZM696.2,328.5l-61.5-32,23.7-62-12.3-38.6h50.1v132.6Z"/>
      <g>
        <path class="cls-3" d="M254.7,578.9c-.8-9.4-3.7-16.6-8.6-21.6-4.9-5-11.7-7.4-20.2-7.4s-19.3,3.5-25.1,10.6c-5.8,7.1-8.7,17.3-8.7,30.7s2.9,23.5,8.7,30.5c5.8,7,14.1,10.5,25.1,10.5s14.3-2.1,19.1-6.3c4.8-4.2,8-10.3,9.6-18.5h58.9c-2.7,21.1-11.4,37.1-26.2,47.9-14.8,10.8-35.2,16.2-61.3,16.2s-51.3-6.8-66.2-20.3c-14.9-13.5-22.3-33.6-22.3-60.1s7.4-46.7,22.3-60.2c14.9-13.5,37-20.3,66.2-20.3s48.4,5.9,63.4,17.6c15,11.7,22.9,28.6,23.8,50.6h-58.3Z"/>
        <path class="cls-3" d="M367.6,667.5v-152.8h51v152.8h-51Z"/>
        <path class="cls-3" d="M473.1,667.5v-152.8h131.4v37.5h-80.4v20.8h65.7v37.6h-65.7v56.9h-51Z"/>
      </g>
      <polygon class="cls-2" points="505.6 195.9 496 217.7 518.3 320.9 487.6 357.8 414 372.4 335.9 318.8 292.2 252.9 325 195.9 505.6 195.9"/>
      <polygon class="cls-3" points="532.8 195.9 620.8 195.9 632.3 228.2 613.2 285.1 538.9 298.1 519.7 223.8 532.8 195.9"/>
      <polygon class="cls-3" points="186.9 297.1 272.3 264.4 308.3 321.1 289.2 390.8 256.8 412.9 186.9 412.9 186.9 297.1"/>
    </g>
  </g>
</svg>