<?xml version="1.0" encoding="UTF-8"?>
<svg xmlns="http://www.w3.org/2000/svg" version="1.1" viewBox="0 0 64 64">
  <defs>
    <style>
      .cls-1 {
        fill: #8d9092;
      }
    </style>
  </defs>
  <!-- Generator: Adobe Illustrator 28.6.0, SVG Export Plug-In . SVG Version: 1.2.0 Build 709)  -->
  <g>
    <g id="Layer_1">
      <rect class="cls-1" x="25.2" y="6.8" width="13.4" height="10.6"/>
      <rect class="cls-1" x="25.2" y="22.8" width="13.4" height="34.7"/>
      <g id="SVGRepo_iconCarrier">
        <path d="M38.6,6.8v1.3h-1.7v-1.3h1.7ZM35.3,6.8v1.3h-1.7v-1.3h1.7ZM31.9,6.8v1.3h-1.7v-1.3h1.7ZM28.6,6.8v1.3h-1.7v1.3h-1.7v-1.3h1.7v-1.3h1.7ZM36.9,9.5h1.7v1.3h-1.7v-1.3ZM36.9,12.1h1.7v1.3h-1.7v-1.3ZM36.9,14.8h1.7v1.3h-1.7v1.3h-1.7v-1.3h1.7v-1.3ZM33.6,16.1v1.3h-1.7v-1.3h1.7ZM30.3,16.1v1.3h-1.7v-1.3h1.7ZM26.9,16.1v1.3h-1.7v-1.3h1.7ZM25.2,14.8v-1.3h1.7v1.3h-1.7ZM25.2,12.1v-1.3h1.7v1.3h-1.7ZM38.6,22.9v1.3h-1.7v-1.3h1.7ZM35.3,22.9v1.3h-1.7v-1.3h1.7ZM31.9,22.9v1.3h-1.7v-1.3h1.7ZM28.6,22.9v1.3h-1.7v1.3h-1.7v-1.3h1.7v-1.3h1.7ZM36.9,25.5h1.7v1.3h-1.7v-1.3ZM36.9,28.2h1.7v1.3h-1.7v-1.3ZM36.9,30.8h1.7v1.3h-1.7v-1.3ZM36.9,57.5h-1.7v-1.3h1.7v-1.3h1.7v1.3h-1.7v1.3ZM33.6,56.2v1.3h-1.7v-1.3h1.7ZM30.3,56.2v1.3h-1.7v-1.3h1.7ZM26.9,32.2v1.3h-1.7v-1.3h1.7ZM25.2,30.8v-1.3h1.7v1.3h-1.7ZM25.2,28.2v-1.3h1.7v1.3h-1.7ZM25.2,34.8h1.7v1.3h-1.7v-1.3ZM36.9,36.1h1.7v1.3h-1.7v-1.3ZM36.9,38.8h1.7v1.3h-1.7v-1.3ZM36.9,41.5h1.7v1.3h-1.7v-1.3ZM26.9,42.8v1.3h-1.7v-1.3h1.7ZM25.2,41.5v-1.3h1.7v1.3h-1.7ZM25.2,38.8v-1.3h1.7v1.3h-1.7ZM36.9,33.5h1.7v1.3h-1.7v-1.3ZM26.9,45.4v1.3h-1.7v-1.3h1.7ZM25.2,48.2h1.7v1.3h-1.7v-1.3ZM26.9,56.2v1.3h-1.7v-1.3h1.7ZM25.2,54.8v-1.3h1.7v1.3h-1.7ZM25.2,52.2v-1.3h1.7v1.3h-1.7ZM36.9,44.1h1.7v1.3h-1.7v-1.3ZM36.9,49.5h1.7v1.3h-1.7v-1.3ZM36.9,52.2h1.7v1.3h-1.7v-1.3ZM36.9,46.8h1.7v1.3h-1.7v-1.3ZM57,6.8v10.6h-13.4V6.8h13.4ZM57,22.9v34.6h-13.4V22.9h13.4ZM20.2,6.8v10.6H6.9V6.8h13.4,0ZM20.2,22.9v34.6H6.9V22.9h13.4,0Z"/>
      </g>
    </g>
  </g>
</svg>