<?xml version="1.0" encoding="UTF-8"?>
<svg xmlns="http://www.w3.org/2000/svg" version="1.1" viewBox="0 0 800 800">
  <defs>
    <style>
      .cls-1 {
        fill: #a4a9b7;
      }

      .cls-2 {
        fill: #616882;
      }

      .cls-3 {
        fill: #1c274c;
      }
    </style>
  </defs>
  <!-- Generator: Adobe Illustrator 28.6.0, SVG Export Plug-In . SVG Version: 1.2.0 Build 709)  -->
  <g>
    <g id="Layer_1" focusable="false">
      <path class="cls-1" d="M409.7,89.8l130.8,488-104.6,28,186.1,136.9,92.7-211.7-104.6,28L479.5,71.2l-69.7,18.7Z"/>
      <text></text>
      <path class="cls-2" d="M286.8,456.4l-2.2,49.1h-152.3v-46l34-23.9c5-3.4,14.3-10.8,27.9-22,13.6-11.3,22.5-19.9,26.7-26,4.2-6.1,6.2-12.4,6.2-19s-1.8-11.4-5.4-15.3c-3.6-3.9-8.4-5.8-14.3-5.8-14.7,0-22.9,11.5-24.7,34.6l-50.5-9.8c3.7-23.5,12.9-41,27.6-52.5,14.7-11.5,32.1-17.2,52.1-17.2s39.4,5.8,53.1,17.4c13.7,11.6,20.6,27.1,20.6,46.4s-3.7,25.1-11.2,36.8c-7.5,11.6-29.3,29.4-65.6,53.3h77.9Z"/>
      <path class="cls-3" d="M201.9,229.5h47.2v44.5H95.2v-44.5h49.4v-95.1c-18.8,8.3-33.4,13.2-43.9,14.6v-45c28.4-6.2,47.7-17.2,57.9-33.1h43.4v158.5Z"/>
      <path class="cls-2" d="M168.9,678.9l52.1-6.4c3.4,18.3,13.2,27.4,29.3,27.4s13.3-1.9,17.9-5.7c4.6-3.8,6.9-8.9,6.9-15.4s-1.2-8.1-3.7-11.4c-2.5-3.3-5.2-5.6-8-6.9-2.8-1.3-7.7-2-14.6-2h-24.3v-41.7h20.5c10.9,0,18-2,21.1-5.9,3.1-3.9,4.7-8,4.7-12.2s-2-9.7-5.9-13.2c-3.9-3.5-9-5.3-15.4-5.3-13.7,0-22,7.6-25,22.9l-48.3-7.6c4.4-18.8,13.7-33.2,27.9-43.4,14.2-10.2,31-15.2,50.5-15.2s39.5,5.1,52.7,15.4c13.3,10.3,19.9,23.9,19.9,41s-2.8,19.2-8.4,26.8c-5.6,7.6-12.8,12.7-21.5,15.4,24,7.3,36,23,36,47s-7.3,34-21.9,44.6c-14.6,10.6-33.5,15.9-56.8,15.9-46.7,0-75.2-21.4-85.7-64.2Z"/>
    </g>
  </g>
</svg>