<?xml version="1.0" encoding="UTF-8"?>
<svg xmlns="http://www.w3.org/2000/svg" version="1.1" viewBox="0 0 800 800">
  <defs>
    <style>
      .cls-1 {
        fill: #8a90a4;
      }

      .cls-2, .cls-3 {
        fill: #1c274c;
      }

      .cls-3 {
        isolation: isolate;
      }
    </style>
  </defs>
  <!-- Generator: Adobe Illustrator 28.6.0, SVG Export Plug-In . SVG Version: 1.2.0 Build 709)  -->
  <g>
    <g id="Layer_1">
      <path class="cls-2" d="M128.2,510.7"/>
      <path class="cls-1" d="M738.2,151.9L591.8,5.5c4.2-3.8-1-5.9-6.4-5.9H156.1c-11,0-20,9-20,20v395.5H.3v341.2h135.8v23.3c0,11,9,20,20,20h576c11,0,20-9,20-20V172.6c.2-8.9,0-14.2-13.9-20.7ZM598.8,268.1c-9.5,77-70,138.2-146.7,148.9-5.5-11.7-12.1-38,.8-62.4,17-32,73.6-32,73.6-32,59-.6,66.9-36.4,72.3-54.5ZM428.2,75c38,0,73.2,12.4,101.6,33.3,4,12.2-3.6,37.7-11.7,49.9-2.9,4.4-9.5,9.9-16.8,15.1-16.3,11.7-36.9,17.5-47.4,39.1-3,6.2-2.9,12.2-1.4,17.5,1,3.8,1.7,7.9,1.7,11.9,0,13-13.1,22.3-26.1,22.2-33.8-.4-55.9-27.6-58.9-61-3.2-35.8-30.8-69.2-44.2-81.4l-7.4-6.3c29.9-25.1,68.4-40.2,110.5-40.2ZM696.2,708H51.6v-245.1h644.6v245.1Z"/>
      <g>
        <path class="cls-3" d="M223.2,566.7l-49.3-8c-8.4-1.4-14-2.8-16.7-4.4-2.7-1.6-4-3.9-4-6.9s1.7-5.8,5.2-7.7c3.5-1.9,8.2-2.9,14.3-2.9s14.8,1.3,19.4,3.8c4.6,2.6,7.2,6.3,7.9,11.4h62.9c-1.1-17.3-8.8-30.1-23-38.3-14.2-8.2-35.8-12.3-64.9-12.3s-48.4,4.1-61.3,12.3c-12.8,8.2-19.2,21.2-19.2,39.1s4.2,24.1,12.7,32c8.5,8,21.1,13.1,37.8,15.4l40.4,5.7c6.5.9,11.4,2.4,14.5,4.5,3.1,2,4.7,4.8,4.7,8.1s-1.8,6.7-5.4,8.6c-3.6,1.9-9.1,2.9-16.4,2.9s-13.1-1.2-17.3-3.5c-4.2-2.3-6.6-5.7-7.1-10h-65.6c.2,17.3,7.3,30.5,21.2,39.7,13.9,9.2,34,13.8,60,13.8s56.8-4.6,72.1-13.7c15.2-9.1,22.9-23.5,22.9-43s-3.8-23.5-11.4-31.2c-7.6-7.7-19.1-12.9-34.6-15.4Z"/>
        <polygon class="cls-3" points="407 560.9 345.2 560.9 345.2 505.7 291.1 505.7 291.1 665.3 345.2 665.3 345.2 600.7 407 600.7 407 665.3 461.1 665.3 461.1 505.7 407 505.7 407 560.9"/>
        <path class="cls-3" d="M642,519.2c-10.7-9-26-13.5-45.8-13.5h-104.5v159.6h54.1v-56.1h50.3c19.8,0,35-4.5,45.8-13.5,10.7-9,16.1-21.7,16.1-38.1s-5.4-29.2-16.1-38.2ZM593.8,570.6c-3.4,2.6-9.5,3.8-18.3,3.8h-29.7v-34.4h29.7c8.8,0,14.9,1.3,18.3,3.8,3.4,2.6,5.1,7,5.1,13.4s-1.7,10.8-5.1,13.3Z"/>
        <path class="cls-3" d="M429,416.5c8.1,0,16.1-.6,23.9-1.7-5.5-11.7-12.1-38,.8-62.3,17-32,73.6-32,73.6-32,58.9-.6,66.9-36.4,72.3-54.5.9-7,1.3-14.1,1.3-21.4,0-56.9-27.6-107.3-70.2-138.5,4,12.2-3.7,37.7-11.7,49.9-2.9,4.4-9.5,9.9-16.8,15.1-16.3,11.7-36.9,17.5-47.4,39.1-3,6.2-2.9,12.2-1.4,17.5,1,3.8,1.7,7.9,1.7,11.9,0,13-13.1,22.3-26.1,22.2-33.8-.4-55.9-27.6-58.9-61-3.2-35.8-30.8-69.2-44.2-81.4l-7.4-6.3c-37.5,31.5-61.3,78.8-61.3,131.6,0,94.9,76.9,171.8,171.8,171.8Z"/>
      </g>
    </g>
  </g>
</svg>