<?xml version="1.0" encoding="UTF-8"?>
<svg xmlns="http://www.w3.org/2000/svg" version="1.1" viewBox="0 0 800 800">
  <defs>
    <style>
      .cls-1 {
        fill: none;
        stroke: #fff;
        stroke-miterlimit: 10;
        stroke-width: 6px;
      }

      .cls-2 {
        fill: #8a90a4;
      }

      .cls-3 {
        fill: #1c274c;
      }
    </style>
  </defs>
  <!-- Generator: Adobe Illustrator 28.6.0, SVG Export Plug-In . SVG Version: 1.2.0 Build 709)  -->
  <g>
    <g id="Layer_1">
      <g id="Layer_1-2" data-name="Layer_1">
        <path class="cls-2" d="M738.2,152.9L591.8,6.5c4.2-3.8-1-5.9-6.4-5.9H156.1c-11,0-20,9-20,20v395.5H.3v341.2h135.8v23.3c0,11,9,20,20,20h576c11,0,20-9,20-20V173.6c.2-8.9,0-14.2-13.9-20.7h0ZM199.7,271.1h165.5v-.4h-165.5v-64.1h165.5v64.1h165.5v64.1h-165.5v.4h-165.5v-64.1h0ZM696.2,709H51.6v-245.1h644.6v245.1h0ZM696.2,400h-165.5v.2h-165.5v-64.1h165.5v-.2h165.5v64.1ZM696.2,270.2h-165.5v-64.1h165.5v64.1Z"/>
        <path class="cls-3" d="M98.3,497"/>
        <g>
          <polygon class="cls-3" points="236 505 185 505 168.7 540.1 153.6 505 102 505 144.1 581.7 95 667.2 148.3 667.2 168.4 623.8 188 667.2 241.5 667.2 193.2 581.7 236 505"/>
          <polygon class="cls-3" points="291.3 505 248.6 505 248.6 667.2 358.6 667.2 358.6 622.8 291.3 622.8 291.3 505"/>
          <path class="cls-3" d="M467.9,567.2l-38.9-8.1c-6.7-1.4-11.1-2.9-13.2-4.5s-3.1-4-3.1-7,1.3-5.9,4.1-7.9c2.7-1.9,6.5-2.9,11.3-2.9s11.6,1.3,15.3,3.9c3.6,2.6,5.7,6.5,6.3,11.5h49.6c-.9-17.7-6.9-30.6-18.1-39-11.2-8.4-28.2-12.5-51.1-12.5s-38.2,4.1-48.3,12.5c-10.2,8.4-15.2,21.5-15.2,39.7s3.3,24.4,10,32.6c6.7,8.1,16.6,13.4,29.8,15.7l31.9,5.8c5.1,1,9,2.5,11.5,4.5,2.5,2.1,3.7,4.9,3.7,8.3s-1.5,6.8-4.2,8.8c-2.9,1.9-7.1,2.9-13,2.9s-10.3-1.1-13.6-3.5c-3.3-2.4-5.1-5.8-5.6-10.1h-51.7c.1,17.5,5.7,31.1,16.7,40.3,11.1,9.4,26.8,14,47.3,14s44.8-4.6,56.8-13.9c12.1-9.3,18-23.9,18-43.7s-3-23.9-9-31.8c-6-7.9-15.1-13-27.2-15.7v.3Z"/>
          <polygon class="cls-3" points="646.5 505 595.5 505 579.2 540.1 564.1 505 512.6 505 554.6 581.7 505.5 667.2 558.9 667.2 579 623.8 598.6 667.2 652 667.2 603.9 581.7 646.5 505"/>
          <rect class="cls-3" x="365.2" y="205.3" width="165.5" height="64.1"/>
          <rect class="cls-3" x="530.7" y="269.5" width="165.5" height="64.1"/>
          <rect class="cls-3" x="198.7" y="336.5" width="165.5" height="64.1"/>
        </g>
        <rect class="cls-1" x="201.7" y="206.3" width="162.4" height="64.1"/>
        <rect class="cls-1" x="201.7" y="270.4" width="162.4" height="64.1"/>
        <rect class="cls-1" x="365.7" y="270.4" width="162.4" height="64.1"/>
        <rect class="cls-1" x="365.7" y="334.5" width="162.4" height="64.1"/>
        <rect class="cls-1" x="531.7" y="206.4" width="162.4" height="64.1"/>
        <rect class="cls-1" x="531.7" y="334.5" width="162.4" height="64.1"/>
        <rect class="cls-1" x="201.7" y="334.4" width="162.4" height="64.1"/>
        <rect class="cls-1" x="365.4" y="206.7" width="162.4" height="64.1"/>
        <rect class="cls-1" x="531.2" y="269.7" width="162.4" height="64.1"/>
      </g>
    </g>
  </g>
</svg>